<svg width="229" height="52" viewBox="0 0 229 52" fill="none" xmlns="http://www.w3.org/2000/svg">
<path id="white" d="M20.087 11.2L37.4828 41.8H2.69114L20.087 11.2Z" fill="#222121"/>
<path d="M42.913 41.8L25.5172 11.2L60.3089 11.2L42.913 41.8Z" fill="#EC2727"/>
<path d="M71.0469 44V9.875H81.5469C84.5469 9.875 87.2266 10.5547 89.5859 11.9141C91.9609 13.2578 93.8125 15.1797 95.1406 17.6797C96.4688 20.1641 97.1328 22.9922 97.1328 26.1641V27.7344C97.1328 30.9062 96.4766 33.7266 95.1641 36.1953C93.8672 38.6641 92.0312 40.5781 89.6562 41.9375C87.2812 43.2969 84.6016 43.9844 81.6172 44H71.0469ZM78.0781 15.5703V38.3516H81.4766C84.2266 38.3516 86.3281 37.4531 87.7812 35.6562C89.2344 33.8594 89.9766 31.2891 90.0078 27.9453V26.1406C90.0078 22.6719 89.2891 20.0469 87.8516 18.2656C86.4141 16.4688 84.3125 15.5703 81.5469 15.5703H78.0781Z" fill="#EC2727"/>
<path id="white" d="M122.469 28.2266H107.68V40.3203H124.859V44H103.18V9.875H124.625V13.5781H107.68V24.5469H122.469V28.2266ZM149.281 28.9297H134.961V44H130.461V9.875H151.602V13.5781H134.961V25.25H149.281V28.9297ZM161.82 44H157.32V9.875H161.82V44ZM196.297 44H191.773L174.594 17.7031V44H170.07V9.875H174.594L191.82 36.2891V9.875H196.297V44ZM223.578 28.2266H208.789V40.3203H225.969V44H204.289V9.875H225.734V13.5781H208.789V24.5469H223.578V28.2266Z" fill="#222121"/>
</svg>
