<svg width="1736" height="505" viewBox="0 0 1736 505" fill="none" xmlns="http://www.w3.org/2000/svg">
<path d="M160.189 375.564L4.11325 106.83H86.1504L196.066 309.98L304.611 106.83H386.648L232.629 375.107V464H160.189V375.564ZM420.469 284.387C420.469 257.422 425.42 232.742 435.322 210.348C445.225 187.953 459.088 168.758 476.912 152.762C494.889 136.613 516.369 124.121 541.353 115.285C566.49 106.449 594.293 102.031 624.762 102.031C655.078 102.031 682.805 106.449 707.941 115.285C733.078 124.121 754.559 136.613 772.383 152.762C790.359 168.758 804.299 187.953 814.201 210.348C824.103 232.742 829.055 257.422 829.055 284.387C829.055 311.504 824.103 336.412 814.201 359.111C804.299 381.658 790.359 401.082 772.383 417.383C754.559 433.684 733.078 446.404 707.941 455.545C682.805 464.533 655.078 469.027 624.762 469.027C594.293 469.027 566.49 464.533 541.353 455.545C516.369 446.404 494.889 433.684 476.912 417.383C459.088 401.082 445.225 381.658 435.322 359.111C425.42 336.412 420.469 311.504 420.469 284.387ZM492.908 284.387C492.908 302.82 496.184 319.426 502.734 334.203C509.437 348.98 518.654 361.625 530.385 372.137C542.268 382.496 556.207 390.494 572.203 396.131C588.352 401.768 605.871 404.586 624.762 404.586C643.652 404.586 661.096 401.768 677.092 396.131C693.24 390.494 707.18 382.496 718.91 372.137C730.641 361.625 739.857 348.98 746.561 334.203C753.264 319.426 756.615 302.82 756.615 284.387C756.615 265.953 753.264 249.424 746.561 234.799C739.857 220.174 730.641 207.834 718.91 197.779C707.18 187.572 693.24 179.803 677.092 174.471C661.096 169.139 643.652 166.473 624.762 166.473C605.871 166.473 588.352 169.139 572.203 174.471C556.207 179.803 542.268 187.572 530.385 197.779C518.654 207.834 509.437 220.174 502.734 234.799C496.184 249.424 492.908 265.953 492.908 284.387ZM896.01 106.83H968.449V303.582C968.449 319.73 970.658 334.127 975.076 346.771C979.494 359.264 986.045 369.852 994.728 378.535C1003.56 387.219 1014.46 393.846 1027.41 398.416C1040.36 402.834 1055.44 405.043 1072.65 405.043C1089.71 405.043 1104.72 402.834 1117.67 398.416C1130.77 393.846 1141.66 387.219 1150.35 378.535C1159.18 369.852 1165.81 359.264 1170.23 346.771C1174.65 334.127 1176.86 319.73 1176.86 303.582V106.83H1249.29V312.266C1249.29 335.727 1245.33 357.055 1237.41 376.25C1229.49 395.445 1217.99 411.898 1202.91 425.609C1187.82 439.32 1169.31 449.908 1147.38 457.373C1125.59 464.838 1100.68 468.57 1072.65 468.57C1044.62 468.57 1019.64 464.838 997.699 457.373C975.914 449.908 957.48 439.32 942.398 425.609C927.316 411.898 915.814 395.445 907.893 376.25C899.971 357.055 896.01 335.727 896.01 312.266V106.83ZM1337.73 106.83H1519.4C1546.82 106.83 1570.59 109.725 1590.7 115.514C1610.81 121.15 1627.49 129.377 1640.74 140.193C1654 151.01 1663.82 164.187 1670.22 179.727C1676.77 195.266 1680.05 212.861 1680.05 232.514C1680.05 245.768 1678.45 258.412 1675.25 270.447C1672.05 282.33 1667.1 293.299 1660.39 303.354C1653.84 313.408 1645.54 322.396 1635.49 330.318C1625.43 338.088 1613.62 344.562 1600.07 349.742L1677.76 464H1589.1L1521.91 362.539H1519.86L1410.17 362.311V464H1337.73V106.83ZM1521.23 299.697C1534.94 299.697 1546.9 298.098 1557.11 294.898C1567.46 291.699 1576.07 287.205 1582.93 281.416C1589.94 275.627 1595.12 268.619 1598.47 260.393C1601.97 252.014 1603.72 242.721 1603.72 232.514C1603.72 212.557 1596.87 197.17 1583.16 186.354C1569.45 175.385 1548.8 169.9 1521.23 169.9H1410.17V299.697H1521.23Z" fill="#EC2727" fill-opacity="0.1"/>
<path d="M220.609 395.102H278.547C286.984 395.102 294.297 396.016 300.484 397.844C306.672 399.672 311.805 402.32 315.883 405.789C319.961 409.211 322.984 413.406 324.953 418.375C326.969 423.344 327.977 428.945 327.977 435.18C327.977 441.039 326.992 446.453 325.023 451.422C323.055 456.391 320.031 460.703 315.953 464.359C311.922 467.969 306.812 470.805 300.625 472.867C294.438 474.883 287.125 475.891 278.688 475.891L242.898 475.82V505H220.609V395.102ZM279.109 456.555C283.328 456.555 287.008 456.062 290.148 455.078C293.336 454.047 295.984 452.617 298.094 450.789C300.25 448.914 301.844 446.664 302.875 444.039C303.953 441.367 304.492 438.414 304.492 435.18C304.492 428.664 302.359 423.602 298.094 419.992C293.875 416.336 287.547 414.508 279.109 414.508H242.898V456.555H279.109ZM389.852 395.102H413.477L466.633 505H443.219L434.43 486.508H370.234L361.727 505H338.242L389.852 395.102ZM425.641 468.156L401.875 418.234L378.742 468.156H425.641ZM516.836 414.648H476.266V395.102H579.695V414.648H539.125V505H516.836V414.648ZM603.461 395.102H625.75V423.789H694.094V395.102H716.453V505H694.094V442.844H625.75V505H603.461V395.102Z" fill="#A8A8A8" fill-opacity="0.3"/>
<path d="M955.406 223.734H992.672C998.297 223.734 1003.17 224.328 1007.3 225.516C1011.42 226.672 1014.84 228.359 1017.56 230.578C1020.28 232.797 1022.3 235.5 1023.61 238.688C1024.95 241.875 1025.62 245.484 1025.62 249.516C1025.62 252.234 1025.3 254.828 1024.64 257.297C1023.98 259.734 1022.97 261.984 1021.59 264.047C1020.25 266.109 1018.55 267.953 1016.48 269.578C1014.42 271.172 1012 272.5 1009.22 273.562L1025.16 297H1006.97L993.188 276.188H992.766L970.266 276.141V297H955.406V223.734ZM993.047 263.297C995.859 263.297 998.312 262.969 1000.41 262.312C1002.53 261.656 1004.3 260.734 1005.7 259.547C1007.14 258.359 1008.2 256.922 1008.89 255.234C1009.61 253.516 1009.97 251.609 1009.97 249.516C1009.97 245.422 1008.56 242.266 1005.75 240.047C1002.94 237.797 998.703 236.672 993.047 236.672H970.266V263.297H993.047ZM1040.48 223.734H1055.34V264.094C1055.34 267.406 1055.8 270.359 1056.7 272.953C1057.61 275.516 1058.95 277.688 1060.73 279.469C1062.55 281.25 1064.78 282.609 1067.44 283.547C1070.09 284.453 1073.19 284.906 1076.72 284.906C1080.22 284.906 1083.3 284.453 1085.95 283.547C1088.64 282.609 1090.88 281.25 1092.66 279.469C1094.47 277.688 1095.83 275.516 1096.73 272.953C1097.64 270.359 1098.09 267.406 1098.09 264.094V223.734H1112.95V265.875C1112.95 270.688 1112.14 275.062 1110.52 279C1108.89 282.938 1106.53 286.312 1103.44 289.125C1100.34 291.938 1096.55 294.109 1092.05 295.641C1087.58 297.172 1082.47 297.938 1076.72 297.938C1070.97 297.938 1065.84 297.172 1061.34 295.641C1056.88 294.109 1053.09 291.938 1050 289.125C1046.91 286.312 1044.55 282.938 1042.92 279C1041.3 275.062 1040.48 270.688 1040.48 265.875V223.734ZM1131.09 223.734H1145.95V283.969H1188.56V297H1131.09V223.734ZM1203 223.734H1265.39V236.766H1217.86V251.391H1259.95V263.625H1217.86V284.016H1266.38V297H1203V223.734ZM1286.3 275.203C1288.95 276.703 1291.64 278.062 1294.36 279.281C1297.11 280.469 1299.95 281.484 1302.89 282.328C1305.83 283.141 1308.91 283.766 1312.12 284.203C1315.38 284.641 1318.83 284.859 1322.48 284.859C1326.89 284.859 1330.64 284.578 1333.73 284.016C1336.83 283.422 1339.34 282.625 1341.28 281.625C1343.25 280.594 1344.67 279.375 1345.55 277.969C1346.45 276.562 1346.91 275.031 1346.91 273.375C1346.91 270.719 1345.8 268.625 1343.58 267.094C1341.36 265.531 1337.94 264.75 1333.31 264.75C1331.28 264.75 1329.14 264.891 1326.89 265.172C1324.64 265.422 1322.36 265.703 1320.05 266.016C1317.77 266.328 1315.5 266.625 1313.25 266.906C1311.03 267.156 1308.94 267.281 1306.97 267.281C1303.69 267.281 1300.53 266.859 1297.5 266.016C1294.5 265.172 1291.83 263.906 1289.48 262.219C1287.17 260.531 1285.33 258.422 1283.95 255.891C1282.58 253.359 1281.89 250.406 1281.89 247.031C1281.89 245.031 1282.16 243.047 1282.69 241.078C1283.25 239.109 1284.12 237.234 1285.31 235.453C1286.53 233.641 1288.09 231.969 1290 230.438C1291.91 228.875 1294.2 227.531 1296.89 226.406C1299.61 225.281 1302.73 224.406 1306.27 223.781C1309.83 223.125 1313.88 222.797 1318.41 222.797C1321.69 222.797 1324.98 222.984 1328.3 223.359C1331.61 223.703 1334.83 224.203 1337.95 224.859C1341.11 225.516 1344.14 226.312 1347.05 227.25C1349.95 228.156 1352.66 229.172 1355.16 230.297L1348.64 242.297C1346.58 241.391 1344.36 240.562 1341.98 239.812C1339.61 239.031 1337.12 238.359 1334.53 237.797C1331.94 237.234 1329.25 236.797 1326.47 236.484C1323.72 236.141 1320.91 235.969 1318.03 235.969C1313.94 235.969 1310.56 236.266 1307.91 236.859C1305.28 237.453 1303.19 238.219 1301.62 239.156C1300.06 240.062 1298.97 241.094 1298.34 242.25C1297.75 243.375 1297.45 244.5 1297.45 245.625C1297.45 247.812 1298.44 249.609 1300.41 251.016C1302.38 252.391 1305.38 253.078 1309.41 253.078C1311.03 253.078 1312.89 252.969 1314.98 252.75C1317.11 252.5 1319.33 252.234 1321.64 251.953C1323.98 251.672 1326.36 251.422 1328.77 251.203C1331.2 250.953 1333.56 250.828 1335.84 250.828C1340.16 250.828 1343.97 251.312 1347.28 252.281C1350.62 253.25 1353.42 254.641 1355.67 256.453C1357.92 258.234 1359.62 260.406 1360.78 262.969C1361.94 265.5 1362.52 268.344 1362.52 271.5C1362.52 275.719 1361.53 279.484 1359.56 282.797C1357.62 286.078 1354.84 288.859 1351.22 291.141C1347.62 293.391 1343.28 295.109 1338.19 296.297C1333.09 297.453 1327.42 298.031 1321.17 298.031C1317.05 298.031 1313.02 297.766 1309.08 297.234C1305.14 296.734 1301.36 296.016 1297.73 295.078C1294.14 294.109 1290.7 292.969 1287.42 291.656C1284.17 290.312 1281.16 288.844 1278.38 287.25L1286.3 275.203Z" fill="#A8A8A8" fill-opacity="0.3"/>
</svg>
